<mxfile host="app.diagrams.net" modified="2020-08-24T18:29:23.403Z" agent="5.0 (Macintosh; Intel Mac OS X 10_13_6) AppleWebKit/605.1.15 (KHTML, like Gecko) Version/13.1.2 Safari/605.1.15" etag="iCqJqLBzn8K4XEOgYbcK" version="13.6.4" type="github">
  <diagram id="C5RBs43oDa-KdzZeNtuy" name="Page-1">
    <mxGraphModel dx="1111" dy="803" grid="1" gridSize="10" guides="1" tooltips="1" connect="1" arrows="1" fold="1" page="1" pageScale="1" pageWidth="827" pageHeight="1169" math="0" shadow="0">
      <root>
        <mxCell id="WIyWlLk6GJQsqaUBKTNV-0" />
        <mxCell id="WIyWlLk6GJQsqaUBKTNV-1" parent="WIyWlLk6GJQsqaUBKTNV-0" />
        <mxCell id="Jge3KHFRpE3Rz7z9e1C4-2" value="" style="edgeStyle=orthogonalEdgeStyle;rounded=0;orthogonalLoop=1;jettySize=auto;html=1;" edge="1" parent="WIyWlLk6GJQsqaUBKTNV-1" source="Jge3KHFRpE3Rz7z9e1C4-0" target="Jge3KHFRpE3Rz7z9e1C4-1">
          <mxGeometry relative="1" as="geometry" />
        </mxCell>
        <mxCell id="Jge3KHFRpE3Rz7z9e1C4-0" value="Start" style="strokeWidth=2;html=1;shape=mxgraph.flowchart.start_1;whiteSpace=wrap;" vertex="1" parent="WIyWlLk6GJQsqaUBKTNV-1">
          <mxGeometry x="310" y="30" width="100" height="60" as="geometry" />
        </mxCell>
        <mxCell id="Jge3KHFRpE3Rz7z9e1C4-4" value="" style="edgeStyle=orthogonalEdgeStyle;rounded=0;orthogonalLoop=1;jettySize=auto;html=1;" edge="1" parent="WIyWlLk6GJQsqaUBKTNV-1" source="Jge3KHFRpE3Rz7z9e1C4-1" target="Jge3KHFRpE3Rz7z9e1C4-3">
          <mxGeometry relative="1" as="geometry" />
        </mxCell>
        <mxCell id="Jge3KHFRpE3Rz7z9e1C4-1" value="a = ARGV&lt;br&gt;b = ARGV&lt;br&gt;c = ARGV" style="html=1;strokeWidth=2;shape=manualInput;whiteSpace=wrap;rounded=1;size=26;arcSize=11;" vertex="1" parent="WIyWlLk6GJQsqaUBKTNV-1">
          <mxGeometry x="310" y="120" width="100" height="90" as="geometry" />
        </mxCell>
        <mxCell id="Jge3KHFRpE3Rz7z9e1C4-6" value="" style="edgeStyle=orthogonalEdgeStyle;rounded=0;orthogonalLoop=1;jettySize=auto;html=1;" edge="1" parent="WIyWlLk6GJQsqaUBKTNV-1" source="Jge3KHFRpE3Rz7z9e1C4-3" target="Jge3KHFRpE3Rz7z9e1C4-5">
          <mxGeometry relative="1" as="geometry" />
        </mxCell>
        <mxCell id="Jge3KHFRpE3Rz7z9e1C4-10" value="" style="edgeStyle=orthogonalEdgeStyle;rounded=0;orthogonalLoop=1;jettySize=auto;html=1;" edge="1" parent="WIyWlLk6GJQsqaUBKTNV-1" source="Jge3KHFRpE3Rz7z9e1C4-3" target="Jge3KHFRpE3Rz7z9e1C4-9">
          <mxGeometry relative="1" as="geometry" />
        </mxCell>
        <mxCell id="Jge3KHFRpE3Rz7z9e1C4-3" value="a != b != c" style="strokeWidth=2;html=1;shape=mxgraph.flowchart.decision;whiteSpace=wrap;" vertex="1" parent="WIyWlLk6GJQsqaUBKTNV-1">
          <mxGeometry x="310" y="250" width="100" height="100" as="geometry" />
        </mxCell>
        <mxCell id="Jge3KHFRpE3Rz7z9e1C4-5" value="puts &quot;Debes ingresar 3 números distintos&quot;" style="strokeWidth=2;html=1;shape=mxgraph.flowchart.display;whiteSpace=wrap;" vertex="1" parent="WIyWlLk6GJQsqaUBKTNV-1">
          <mxGeometry x="480" y="260" width="140" height="80" as="geometry" />
        </mxCell>
        <mxCell id="Jge3KHFRpE3Rz7z9e1C4-7" value="no" style="text;html=1;align=center;verticalAlign=middle;resizable=0;points=[];autosize=1;" vertex="1" parent="WIyWlLk6GJQsqaUBKTNV-1">
          <mxGeometry x="430" y="270" width="30" height="20" as="geometry" />
        </mxCell>
        <mxCell id="Jge3KHFRpE3Rz7z9e1C4-8" value="si" style="text;html=1;align=center;verticalAlign=middle;resizable=0;points=[];autosize=1;" vertex="1" parent="WIyWlLk6GJQsqaUBKTNV-1">
          <mxGeometry x="310" y="360" width="20" height="20" as="geometry" />
        </mxCell>
        <mxCell id="Jge3KHFRpE3Rz7z9e1C4-13" value="" style="edgeStyle=orthogonalEdgeStyle;rounded=0;orthogonalLoop=1;jettySize=auto;html=1;entryX=0;entryY=0.5;entryDx=0;entryDy=0;entryPerimeter=0;" edge="1" parent="WIyWlLk6GJQsqaUBKTNV-1" source="Jge3KHFRpE3Rz7z9e1C4-9" target="Jge3KHFRpE3Rz7z9e1C4-11">
          <mxGeometry relative="1" as="geometry" />
        </mxCell>
        <mxCell id="Jge3KHFRpE3Rz7z9e1C4-16" value="" style="edgeStyle=orthogonalEdgeStyle;rounded=0;orthogonalLoop=1;jettySize=auto;html=1;" edge="1" parent="WIyWlLk6GJQsqaUBKTNV-1" target="Jge3KHFRpE3Rz7z9e1C4-15">
          <mxGeometry relative="1" as="geometry">
            <mxPoint x="360" y="500" as="sourcePoint" />
          </mxGeometry>
        </mxCell>
        <mxCell id="Jge3KHFRpE3Rz7z9e1C4-9" value="a &amp;gt; b &amp;amp;&amp;amp; c" style="strokeWidth=2;html=1;shape=mxgraph.flowchart.decision;whiteSpace=wrap;" vertex="1" parent="WIyWlLk6GJQsqaUBKTNV-1">
          <mxGeometry x="310" y="400" width="100" height="100" as="geometry" />
        </mxCell>
        <mxCell id="Jge3KHFRpE3Rz7z9e1C4-11" value="puts &quot;El número #{a} es mayor&quot;" style="strokeWidth=2;html=1;shape=mxgraph.flowchart.display;whiteSpace=wrap;" vertex="1" parent="WIyWlLk6GJQsqaUBKTNV-1">
          <mxGeometry x="480" y="410" width="140" height="80" as="geometry" />
        </mxCell>
        <mxCell id="Jge3KHFRpE3Rz7z9e1C4-12" value="si" style="text;html=1;align=center;verticalAlign=middle;resizable=0;points=[];autosize=1;" vertex="1" parent="WIyWlLk6GJQsqaUBKTNV-1">
          <mxGeometry x="435" y="420" width="20" height="20" as="geometry" />
        </mxCell>
        <mxCell id="Jge3KHFRpE3Rz7z9e1C4-14" value="no" style="text;html=1;align=center;verticalAlign=middle;resizable=0;points=[];autosize=1;" vertex="1" parent="WIyWlLk6GJQsqaUBKTNV-1">
          <mxGeometry x="305" y="514" width="30" height="20" as="geometry" />
        </mxCell>
        <mxCell id="Jge3KHFRpE3Rz7z9e1C4-15" value="b &amp;gt; a &amp;amp;&amp;amp; c" style="strokeWidth=2;html=1;shape=mxgraph.flowchart.decision;whiteSpace=wrap;" vertex="1" parent="WIyWlLk6GJQsqaUBKTNV-1">
          <mxGeometry x="310" y="550" width="100" height="100" as="geometry" />
        </mxCell>
        <mxCell id="Jge3KHFRpE3Rz7z9e1C4-17" value="" style="edgeStyle=orthogonalEdgeStyle;rounded=0;orthogonalLoop=1;jettySize=auto;html=1;entryX=0;entryY=0.5;entryDx=0;entryDy=0;entryPerimeter=0;" edge="1" parent="WIyWlLk6GJQsqaUBKTNV-1" target="Jge3KHFRpE3Rz7z9e1C4-18">
          <mxGeometry relative="1" as="geometry">
            <mxPoint x="410" y="600" as="sourcePoint" />
          </mxGeometry>
        </mxCell>
        <mxCell id="Jge3KHFRpE3Rz7z9e1C4-18" value="puts &quot;El número #{b} es mayor&quot;" style="strokeWidth=2;html=1;shape=mxgraph.flowchart.display;whiteSpace=wrap;" vertex="1" parent="WIyWlLk6GJQsqaUBKTNV-1">
          <mxGeometry x="480" y="560" width="140" height="80" as="geometry" />
        </mxCell>
        <mxCell id="Jge3KHFRpE3Rz7z9e1C4-19" value="si" style="text;html=1;align=center;verticalAlign=middle;resizable=0;points=[];autosize=1;" vertex="1" parent="WIyWlLk6GJQsqaUBKTNV-1">
          <mxGeometry x="435" y="570" width="20" height="20" as="geometry" />
        </mxCell>
        <mxCell id="Jge3KHFRpE3Rz7z9e1C4-20" value="" style="edgeStyle=orthogonalEdgeStyle;rounded=0;orthogonalLoop=1;jettySize=auto;html=1;" edge="1" parent="WIyWlLk6GJQsqaUBKTNV-1" target="Jge3KHFRpE3Rz7z9e1C4-22">
          <mxGeometry relative="1" as="geometry">
            <mxPoint x="360" y="650" as="sourcePoint" />
          </mxGeometry>
        </mxCell>
        <mxCell id="Jge3KHFRpE3Rz7z9e1C4-21" value="no" style="text;html=1;align=center;verticalAlign=middle;resizable=0;points=[];autosize=1;" vertex="1" parent="WIyWlLk6GJQsqaUBKTNV-1">
          <mxGeometry x="305" y="664" width="30" height="20" as="geometry" />
        </mxCell>
        <mxCell id="Jge3KHFRpE3Rz7z9e1C4-27" value="" style="edgeStyle=orthogonalEdgeStyle;rounded=0;orthogonalLoop=1;jettySize=auto;html=1;" edge="1" parent="WIyWlLk6GJQsqaUBKTNV-1" source="Jge3KHFRpE3Rz7z9e1C4-22" target="Jge3KHFRpE3Rz7z9e1C4-26">
          <mxGeometry relative="1" as="geometry" />
        </mxCell>
        <mxCell id="Jge3KHFRpE3Rz7z9e1C4-22" value="c &amp;gt; a &amp;amp;&amp;amp; b" style="strokeWidth=2;html=1;shape=mxgraph.flowchart.decision;whiteSpace=wrap;" vertex="1" parent="WIyWlLk6GJQsqaUBKTNV-1">
          <mxGeometry x="310" y="700" width="100" height="100" as="geometry" />
        </mxCell>
        <mxCell id="Jge3KHFRpE3Rz7z9e1C4-23" value="" style="edgeStyle=orthogonalEdgeStyle;rounded=0;orthogonalLoop=1;jettySize=auto;html=1;entryX=0;entryY=0.5;entryDx=0;entryDy=0;entryPerimeter=0;" edge="1" parent="WIyWlLk6GJQsqaUBKTNV-1" target="Jge3KHFRpE3Rz7z9e1C4-24">
          <mxGeometry relative="1" as="geometry">
            <mxPoint x="410" y="750" as="sourcePoint" />
          </mxGeometry>
        </mxCell>
        <mxCell id="Jge3KHFRpE3Rz7z9e1C4-24" value="puts &quot;El número #{c} es mayor&quot;" style="strokeWidth=2;html=1;shape=mxgraph.flowchart.display;whiteSpace=wrap;" vertex="1" parent="WIyWlLk6GJQsqaUBKTNV-1">
          <mxGeometry x="480" y="710" width="140" height="80" as="geometry" />
        </mxCell>
        <mxCell id="Jge3KHFRpE3Rz7z9e1C4-25" value="si" style="text;html=1;align=center;verticalAlign=middle;resizable=0;points=[];autosize=1;" vertex="1" parent="WIyWlLk6GJQsqaUBKTNV-1">
          <mxGeometry x="435" y="720" width="20" height="20" as="geometry" />
        </mxCell>
        <mxCell id="Jge3KHFRpE3Rz7z9e1C4-26" value="Fin" style="strokeWidth=2;html=1;shape=mxgraph.flowchart.start_1;whiteSpace=wrap;" vertex="1" parent="WIyWlLk6GJQsqaUBKTNV-1">
          <mxGeometry x="320" y="840" width="80" height="44" as="geometry" />
        </mxCell>
      </root>
    </mxGraphModel>
  </diagram>
</mxfile>
